<mxfile host="app.diagrams.net" modified="2022-12-10T14:28:59.046Z" agent="5.0 (X11)" etag="X1K1IdmE8jFbH708v7_h" version="20.6.2" type="github">
  <diagram id="xGRFWv-86JrU4ld9lAH6" name="Strona-1">
    <mxGraphModel dx="1990" dy="1153" grid="1" gridSize="10" guides="1" tooltips="1" connect="1" arrows="1" fold="1" page="1" pageScale="1" pageWidth="827" pageHeight="1169" math="0" shadow="0">
      <root>
        <mxCell id="0" />
        <mxCell id="1" parent="0" />
        <mxCell id="sqHnBvawsnAPbd3wMaf9-26" style="edgeStyle=orthogonalEdgeStyle;rounded=0;orthogonalLoop=1;jettySize=auto;html=1;exitX=0.5;exitY=0.5;exitDx=0;exitDy=0;exitPerimeter=0;entryX=0.5;entryY=0.5;entryDx=0;entryDy=0;entryPerimeter=0;startArrow=diamond;startFill=0;endArrow=none;endFill=0;" parent="1" source="sqHnBvawsnAPbd3wMaf9-1" target="sqHnBvawsnAPbd3wMaf9-10" edge="1">
          <mxGeometry relative="1" as="geometry">
            <Array as="points">
              <mxPoint x="230" y="360" />
              <mxPoint x="230" y="290" />
            </Array>
          </mxGeometry>
        </mxCell>
        <mxCell id="sqHnBvawsnAPbd3wMaf9-1" value="Klient" style="shape=umlActor;verticalLabelPosition=bottom;verticalAlign=top;html=1;" parent="1" vertex="1">
          <mxGeometry x="170" y="330" width="30" height="60" as="geometry" />
        </mxCell>
        <mxCell id="sqHnBvawsnAPbd3wMaf9-4" value="Cieć" style="shape=umlActor;verticalLabelPosition=bottom;verticalAlign=top;html=1;" parent="1" vertex="1">
          <mxGeometry x="300" y="610" width="30" height="60" as="geometry" />
        </mxCell>
        <mxCell id="sqHnBvawsnAPbd3wMaf9-19" style="edgeStyle=orthogonalEdgeStyle;rounded=0;orthogonalLoop=1;jettySize=auto;html=1;exitX=0.5;exitY=0.5;exitDx=0;exitDy=0;exitPerimeter=0;entryX=0.5;entryY=0.5;entryDx=0;entryDy=0;entryPerimeter=0;startArrow=diamond;startFill=0;endArrow=none;endFill=0;" parent="1" source="sqHnBvawsnAPbd3wMaf9-5" target="sqHnBvawsnAPbd3wMaf9-6" edge="1">
          <mxGeometry relative="1" as="geometry">
            <Array as="points">
              <mxPoint x="250" y="610" />
              <mxPoint x="250" y="520" />
            </Array>
          </mxGeometry>
        </mxCell>
        <mxCell id="sqHnBvawsnAPbd3wMaf9-20" style="edgeStyle=orthogonalEdgeStyle;rounded=0;orthogonalLoop=1;jettySize=auto;html=1;exitX=0.5;exitY=0.5;exitDx=0;exitDy=0;exitPerimeter=0;entryX=0.5;entryY=0.5;entryDx=0;entryDy=0;entryPerimeter=0;startArrow=diamond;startFill=0;endArrow=none;endFill=0;" parent="1" source="sqHnBvawsnAPbd3wMaf9-5" target="sqHnBvawsnAPbd3wMaf9-4" edge="1">
          <mxGeometry relative="1" as="geometry" />
        </mxCell>
        <mxCell id="sqHnBvawsnAPbd3wMaf9-21" style="edgeStyle=orthogonalEdgeStyle;rounded=0;orthogonalLoop=1;jettySize=auto;html=1;exitX=0.5;exitY=0.5;exitDx=0;exitDy=0;exitPerimeter=0;entryX=0.5;entryY=0.5;entryDx=0;entryDy=0;entryPerimeter=0;startArrow=diamond;startFill=0;endArrow=none;endFill=0;" parent="1" source="sqHnBvawsnAPbd3wMaf9-5" target="sqHnBvawsnAPbd3wMaf9-7" edge="1">
          <mxGeometry relative="1" as="geometry">
            <Array as="points">
              <mxPoint x="250" y="610" />
              <mxPoint x="250" y="750" />
            </Array>
          </mxGeometry>
        </mxCell>
        <mxCell id="sqHnBvawsnAPbd3wMaf9-5" value="Pracownik" style="shape=umlActor;verticalLabelPosition=bottom;verticalAlign=top;html=1;" parent="1" vertex="1">
          <mxGeometry x="170" y="580" width="30" height="60" as="geometry" />
        </mxCell>
        <mxCell id="sqHnBvawsnAPbd3wMaf9-22" style="edgeStyle=orthogonalEdgeStyle;rounded=0;orthogonalLoop=1;jettySize=auto;html=1;exitX=0.5;exitY=0.5;exitDx=0;exitDy=0;exitPerimeter=0;entryX=0.5;entryY=0.5;entryDx=0;entryDy=0;entryPerimeter=0;startArrow=diamond;startFill=0;endArrow=none;endFill=0;" parent="1" source="sqHnBvawsnAPbd3wMaf9-6" target="sqHnBvawsnAPbd3wMaf9-8" edge="1">
          <mxGeometry relative="1" as="geometry" />
        </mxCell>
        <mxCell id="sqHnBvawsnAPbd3wMaf9-24" style="edgeStyle=orthogonalEdgeStyle;rounded=0;orthogonalLoop=1;jettySize=auto;html=1;exitX=0.5;exitY=0.5;exitDx=0;exitDy=0;exitPerimeter=0;entryX=0.5;entryY=0.5;entryDx=0;entryDy=0;entryPerimeter=0;startArrow=diamond;startFill=0;endArrow=none;endFill=0;" parent="1" source="sqHnBvawsnAPbd3wMaf9-6" target="sqHnBvawsnAPbd3wMaf9-9" edge="1">
          <mxGeometry relative="1" as="geometry" />
        </mxCell>
        <mxCell id="sqHnBvawsnAPbd3wMaf9-6" value="Sprzedawca" style="shape=umlActor;verticalLabelPosition=bottom;verticalAlign=top;html=1;" parent="1" vertex="1">
          <mxGeometry x="300" y="490" width="30" height="60" as="geometry" />
        </mxCell>
        <mxCell id="sqHnBvawsnAPbd3wMaf9-25" style="edgeStyle=orthogonalEdgeStyle;rounded=0;orthogonalLoop=1;jettySize=auto;html=1;exitX=0.5;exitY=0.5;exitDx=0;exitDy=0;exitPerimeter=0;entryX=0.5;entryY=0.5;entryDx=0;entryDy=0;entryPerimeter=0;startArrow=diamond;startFill=0;endArrow=none;endFill=0;" parent="1" source="sqHnBvawsnAPbd3wMaf9-7" target="sqHnBvawsnAPbd3wMaf9-12" edge="1">
          <mxGeometry relative="1" as="geometry" />
        </mxCell>
        <mxCell id="sqHnBvawsnAPbd3wMaf9-7" value="Wsparcie IT" style="shape=umlActor;verticalLabelPosition=bottom;verticalAlign=top;html=1;" parent="1" vertex="1">
          <mxGeometry x="300" y="720" width="30" height="60" as="geometry" />
        </mxCell>
        <mxCell id="sqHnBvawsnAPbd3wMaf9-8" value="Sprzedawca biletów" style="shape=umlActor;verticalLabelPosition=bottom;verticalAlign=top;html=1;" parent="1" vertex="1">
          <mxGeometry x="444" y="450" width="30" height="60" as="geometry" />
        </mxCell>
        <mxCell id="sqHnBvawsnAPbd3wMaf9-9" value="Sprzedawca w bufecie" style="shape=umlActor;verticalLabelPosition=bottom;verticalAlign=top;html=1;" parent="1" vertex="1">
          <mxGeometry x="444" y="540" width="30" height="60" as="geometry" />
        </mxCell>
        <mxCell id="sqHnBvawsnAPbd3wMaf9-10" value="Recenzent" style="shape=umlActor;verticalLabelPosition=bottom;verticalAlign=top;html=1;" parent="1" vertex="1">
          <mxGeometry x="270" y="260" width="30" height="60" as="geometry" />
        </mxCell>
        <mxCell id="sqHnBvawsnAPbd3wMaf9-12" value="Administrator sieci" style="shape=umlActor;verticalLabelPosition=bottom;verticalAlign=top;html=1;" parent="1" vertex="1">
          <mxGeometry x="450" y="720" width="30" height="60" as="geometry" />
        </mxCell>
        <mxCell id="HDXTYV2n2A8CuA-9SR5O-17" style="edgeStyle=orthogonalEdgeStyle;rounded=0;orthogonalLoop=1;jettySize=auto;html=1;entryX=0.5;entryY=0.5;entryDx=0;entryDy=0;entryPerimeter=0;endArrow=none;endFill=0;startArrow=diamond;startFill=0;" edge="1" parent="1" source="HDXTYV2n2A8CuA-9SR5O-1" target="sqHnBvawsnAPbd3wMaf9-5">
          <mxGeometry relative="1" as="geometry">
            <Array as="points">
              <mxPoint x="130" y="520" />
              <mxPoint x="130" y="610" />
            </Array>
          </mxGeometry>
        </mxCell>
        <mxCell id="HDXTYV2n2A8CuA-9SR5O-18" style="edgeStyle=orthogonalEdgeStyle;rounded=0;orthogonalLoop=1;jettySize=auto;html=1;entryX=0.5;entryY=0.5;entryDx=0;entryDy=0;entryPerimeter=0;endArrow=none;endFill=0;startArrow=diamond;startFill=0;" edge="1" parent="1" source="HDXTYV2n2A8CuA-9SR5O-1" target="sqHnBvawsnAPbd3wMaf9-1">
          <mxGeometry relative="1" as="geometry">
            <Array as="points">
              <mxPoint x="130" y="520" />
              <mxPoint x="130" y="360" />
            </Array>
          </mxGeometry>
        </mxCell>
        <mxCell id="HDXTYV2n2A8CuA-9SR5O-1" value="Osoba" style="shape=umlActor;verticalLabelPosition=bottom;verticalAlign=top;html=1;outlineConnect=0;" vertex="1" parent="1">
          <mxGeometry x="50" y="490" width="30" height="60" as="geometry" />
        </mxCell>
      </root>
    </mxGraphModel>
  </diagram>
</mxfile>
